<svg width="31" height="30" viewBox="0 0 31 30" fill="none" xmlns="http://www.w3.org/2000/svg">
<path fill-rule="evenodd" clip-rule="evenodd" d="M30.1034 15C30.1034 23.2843 23.3877 30 15.1034 30C11.8208 30 8.78446 28.9455 6.31464 27.1569C13.7591 25.7996 25.5318 21.9184 30.0732 14.0391C30.0932 14.3568 30.1034 14.6772 30.1034 15Z" fill="#DADADA"/>
<path fill-rule="evenodd" clip-rule="evenodd" d="M0.103455 15C0.103455 18.2945 1.16553 21.3409 2.96597 23.8155C3.97233 23.8025 4.9537 23.7489 5.9099 23.6592V14.6198C5.9099 14.0281 6.3896 13.5484 6.98133 13.5484H9.67718C10.2689 13.5484 10.7486 14.0281 10.7486 14.6198V22.8677C11.4148 22.7111 12.0659 22.5378 12.7019 22.3499C12.6902 22.2865 12.6841 22.2211 12.6841 22.1544V10.7488C12.6841 10.1571 13.1638 9.67742 13.7555 9.67742H16.4514C17.0431 9.67742 17.5228 10.1571 17.5228 10.7488V20.5463C18.2078 20.2342 18.8692 19.9081 19.5071 19.5719C19.4754 19.4706 19.4583 19.3629 19.4583 19.2511V7.84562C19.4583 7.25389 19.938 6.77419 20.5297 6.77419H23.2256C23.8173 6.77419 24.297 7.25389 24.297 7.84562V16.6C26.6589 14.9016 28.4951 13.216 29.7906 11.9375C28.3767 5.12192 22.3382 0 15.1035 0C6.81918 0 0.103455 6.71573 0.103455 15Z" fill="#DADADA"/>
</svg>
