<svg width="10" height="15" viewBox="0 0 10 15" fill="none" xmlns="http://www.w3.org/2000/svg">
<path fill-rule="evenodd" clip-rule="evenodd" d="M5.05325 0.500007C5.21667 0.50087 5.36936 0.581541 5.46217 0.716055L9.91155 7.16505C10.0293 7.33567 10.0295 7.56123 9.91213 7.73209L5.41213 14.2831C5.31887 14.4189 5.16472 14.5 5 14.5C4.83528 14.5 4.68113 14.4189 4.58787 14.2831L0.0878669 7.73209C-0.0305943 7.55964 -0.0291575 7.33166 0.0914679 7.16072L4.64208 0.711727C4.7363 0.578199 4.88983 0.499144 5.05325 0.500007ZM1.9198 8.63283L4.7956 9.921C4.92564 9.97925 5.07436 9.97925 5.2044 9.921L8.0802 8.63284L5 13.1169L1.9198 8.63283ZM8.7472 7.23833L5 8.91682L1.25873 7.24098L5.046 1.87377L8.7472 7.23833Z" fill="#D9D9D9"/>
</svg>
