<svg width="17" height="17" viewBox="0 0 17 17" fill="none" xmlns="http://www.w3.org/2000/svg">
<g id="eye">
<path id="icon" fill-rule="evenodd" clip-rule="evenodd" d="M8.49996 2.83331C10.432 2.83331 12.2794 3.84667 14.0011 5.51163C14.5884 6.07964 15.1198 6.68605 15.5876 7.29271C15.8699 7.65879 16.0703 7.94677 16.18 8.11833L16.4241 8.49998L16.18 8.88163C16.0703 9.05319 15.8699 9.34117 15.5876 9.70725C15.1198 10.3139 14.5884 10.9203 14.0011 11.4883C12.2794 13.1533 10.432 14.1666 8.49996 14.1666C6.56794 14.1666 4.72052 13.1533 2.99883 11.4883C2.41147 10.9203 1.88009 10.3139 1.41231 9.70725C1.13003 9.34117 0.929624 9.05319 0.819897 8.88163L0.575806 8.49998L0.819897 8.11833C0.929624 7.94677 1.13003 7.65879 1.41231 7.29271C1.88009 6.68605 2.41147 6.07964 2.99883 5.51163C4.72052 3.84667 6.56794 2.83331 8.49996 2.83331ZM14.4657 8.15777C14.0374 7.60232 13.5505 7.04662 13.0163 6.53C11.5334 5.096 9.99105 4.24998 8.49996 4.24998C7.00886 4.24998 5.46651 5.096 3.98365 6.53C3.44942 7.04662 2.96248 7.60232 2.53419 8.15777C2.44169 8.27773 2.35622 8.39219 2.27807 8.49998C2.35622 8.60777 2.44169 8.72223 2.53419 8.84219C2.96248 9.39764 3.44942 9.95334 3.98365 10.47C5.46651 11.904 7.00886 12.75 8.49996 12.75C9.99105 12.75 11.5334 11.904 13.0163 10.47C13.5505 9.95334 14.0374 9.39764 14.4657 8.84219C14.5582 8.72223 14.6437 8.60777 14.7218 8.49998C14.6437 8.39219 14.5582 8.27773 14.4657 8.15777ZM5.66662 8.49998C5.66662 10.0648 6.93515 11.3333 8.49995 11.3333C10.0648 11.3333 11.3333 10.0648 11.3333 8.49998C11.3333 6.93517 10.0648 5.66665 8.49995 5.66665C6.93515 5.66665 5.66662 6.93517 5.66662 8.49998ZM9.91662 8.49998C9.91662 9.28238 9.28236 9.91665 8.49996 9.91665C7.71755 9.91665 7.08329 9.28238 7.08329 8.49998C7.08329 7.71758 7.71755 7.08331 8.49996 7.08331C9.28236 7.08331 9.91662 7.71758 9.91662 8.49998Z" fill="#DADADA"/>
</g>
</svg>
