<svg width="37" height="39" viewBox="0 0 37 39" fill="none" xmlns="http://www.w3.org/2000/svg">
<g id="24 / symbols / instagram" filter="url(#filter0_d_8_431)">
<path id="icon" fill-rule="evenodd" clip-rule="evenodd" d="M24 2.75H13C8.44365 2.75 4.75 6.44365 4.75 11V22C4.75 26.5563 8.44365 30.25 13 30.25H24C28.5563 30.25 32.25 26.5563 32.25 22V11C32.25 6.44365 28.5563 2.75 24 2.75ZM7.5 11C7.5 7.96243 9.96243 5.5 13 5.5H24C27.0376 5.5 29.5 7.96243 29.5 11V22C29.5 25.0376 27.0376 27.5 24 27.5H13C9.96243 27.5 7.5 25.0376 7.5 22V11ZM18.5 23.375C14.703 23.375 11.625 20.297 11.625 16.5C11.625 12.703 14.703 9.625 18.5 9.625C22.297 9.625 25.375 12.703 25.375 16.5C25.375 20.297 22.297 23.375 18.5 23.375ZM18.5 20.625C20.7782 20.625 22.625 18.7782 22.625 16.5C22.625 14.2218 20.7782 12.375 18.5 12.375C16.2218 12.375 14.375 14.2218 14.375 16.5C14.375 18.7782 16.2218 20.625 18.5 20.625ZM26.75 9.625C26.75 10.3844 26.1344 11 25.375 11C24.6156 11 24 10.3844 24 9.625C24 8.86561 24.6156 8.25 25.375 8.25C26.1344 8.25 26.75 8.86561 26.75 9.625Z" fill="#D9D9D9"/>
</g>
<defs>
<filter id="filter0_d_8_431" x="-2" y="0" width="41" height="41" filterUnits="userSpaceOnUse" color-interpolation-filters="sRGB">
<feFlood flood-opacity="0" result="BackgroundImageFix"/>
<feColorMatrix in="SourceAlpha" type="matrix" values="0 0 0 0 0 0 0 0 0 0 0 0 0 0 0 0 0 0 127 0" result="hardAlpha"/>
<feOffset dy="4"/>
<feGaussianBlur stdDeviation="2"/>
<feComposite in2="hardAlpha" operator="out"/>
<feColorMatrix type="matrix" values="0 0 0 0 0 0 0 0 0 0 0 0 0 0 0 0 0 0 0.25 0"/>
<feBlend mode="normal" in2="BackgroundImageFix" result="effect1_dropShadow_8_431"/>
<feBlend mode="normal" in="SourceGraphic" in2="effect1_dropShadow_8_431" result="shape"/>
</filter>
</defs>
</svg>
