<svg width="17" height="17" viewBox="0 0 17 17" fill="none" xmlns="http://www.w3.org/2000/svg">
<g id="24 / arrows / refresh-cw">
<path id="icon" fill-rule="evenodd" clip-rule="evenodd" d="M8.49996 2.83335C10.1954 2.83335 11.6495 3.59743 12.6132 4.95835H9.91663V6.37502H14.875V1.41669H13.4583V3.73318C12.2363 2.2543 10.4863 1.41669 8.49996 1.41669C4.58794 1.41669 1.41663 4.588 1.41663 8.50002H2.83329C2.83329 5.37041 5.37035 2.83335 8.49996 2.83335ZM8.49996 14.1667C6.80448 14.1667 5.35038 13.4026 4.38671 12.0417H7.08329V10.625H2.12496V15.5834H3.54163V13.2669C4.76358 14.7457 6.51363 15.5834 8.49996 15.5834C12.412 15.5834 15.5833 12.412 15.5833 8.50002H14.1666C14.1666 11.6296 11.6296 14.1667 8.49996 14.1667Z" fill="#D9D9D9"/>
</g>
</svg>
