<svg width="34" height="33" viewBox="0 0 34 33" fill="none" xmlns="http://www.w3.org/2000/svg">
<g id="24 / symbols / twitter">
<path id="icon" fill-rule="evenodd" clip-rule="evenodd" d="M29.1428 6.19888L31.0881 6.42605L30.2137 8.1785C29.7872 9.0331 29.3604 9.8877 28.9331 10.7423C28.8825 10.9233 28.7934 11.082 28.6617 11.2886C28.6067 11.3749 28.4187 11.6495 28.4099 11.6627C28.3603 11.7371 28.3236 11.7958 28.2972 11.8429V15.1271C28.2972 23.5311 20.164 28.8715 12.4833 28.8715C10.9117 28.8715 9.71755 28.7962 8.35022 28.4978C6.10004 28.0067 4.42546 27.0307 3.65917 25.3247L2.87024 23.5684L4.78751 23.3921C6.52196 23.2326 8.02578 22.9022 9.18064 22.4597C6.01014 21.9498 4.2334 20.5573 4.2334 17.9422V16.5672H5.6084C5.91051 16.5672 6.18292 16.5427 6.42645 16.4977C4.04696 15.075 2.85513 12.7927 2.85513 9.62709C2.85487 9.49217 2.85487 9.49217 2.85406 9.3479C2.84512 7.75228 2.93083 6.8997 3.36763 5.81157C3.64758 5.11419 4.05222 4.46859 4.59682 3.87704L5.63441 2.75L6.64319 3.90289C9.96762 7.70221 13.2539 10.0072 16.6092 10.286C16.6235 6.78019 19.2731 4.12709 22.7969 4.12709C24.4397 4.12709 25.9298 4.75064 27.1009 5.875C27.7418 6.0067 28.4225 6.11475 29.1428 6.19888ZM26.1028 8.47277L25.6813 8.37732L25.3902 8.05788C24.6863 7.2855 23.8029 6.87709 22.7969 6.87709C20.7853 6.87709 19.3591 8.31037 19.3591 10.3146C19.3591 10.6421 19.3507 10.848 19.3099 11.1185C19.147 12.1978 18.5416 13.0646 17.2966 13.0646C13.1743 13.0646 9.45532 10.8562 5.82881 7.08439C5.64185 7.65271 5.59788 8.2369 5.60402 9.3325C5.60485 9.47902 5.60485 9.47902 5.60513 9.62709C5.60513 12.4431 6.74599 13.9834 9.44722 14.842L10.4057 15.1467V16.1524C10.4057 17.372 9.25026 18.5201 7.55964 19.0343C8.33463 19.6223 9.91958 19.9396 12.4838 19.9396H13.8588V21.3146C13.8588 23.2846 11.5952 24.8271 8.17573 25.6326C9.2909 25.9742 10.7757 26.1215 12.4833 26.1215C18.8282 26.1215 25.5472 21.7096 25.5472 15.1271V11.6896C25.5472 11.2856 25.6643 10.935 25.8588 10.5704C25.9348 10.4279 26.0186 10.292 26.1219 10.137C26.1414 10.1078 26.2136 10.0021 26.2709 9.91759L26.3799 9.69965C26.5565 9.34649 26.733 8.99334 26.9094 8.64018C26.6352 8.58824 26.3663 8.53244 26.1028 8.47277Z" fill="#DADADA"/>
</g>
</svg>
