<svg width="25" height="23" viewBox="0 0 25 23" fill="none" xmlns="http://www.w3.org/2000/svg">
<path d="M19.8575 12.4075C20.215 12.765 20.4075 13.26 20.4075 13.7825C20.4075 14.2775 20.215 14.7725 19.8575 15.13C19.5 15.4875 19.005 15.7075 18.4825 15.7075C17.9875 15.7075 17.4925 15.4875 17.1075 15.13C16.75 14.7725 16.5575 14.2775 16.5575 13.7825C16.5575 13.26 16.7775 12.7925 17.1075 12.4075C17.465 12.05 17.96 11.8575 18.4825 11.8575C19.005 11.8575 19.5 12.05 19.8575 12.4075ZM25 8.11749V20.2725C25 21.51 24.01 22.5 22.7725 22.5H2.8625C1.405 22.5 0.25 21.3175 0.25 19.8875V9.9875V7.67753V3.8C0.25 1.985 1.735 0.5 3.55 0.5H18.7575C20.27 0.5 21.425 1.7375 21.425 3.25V4.9H21.92C23.625 4.9 25 6.41249 25 8.11749ZM2.28501 3.8C2.28501 4.405 2.78001 4.9 3.38501 4.9H19.225V3.19501C19.225 2.92001 19.005 2.7 18.73 2.7H3.38501C2.78001 2.7 2.28501 3.195 2.28501 3.8ZM22.8 8.11749C22.8 7.64999 22.415 7.1 21.92 7.1H2.88999C2.64249 7.1 2.45 7.43003 2.45 7.67753V9.9875V19.8875C2.45 20.1075 2.6425 20.3 2.8625 20.3H22.7725C22.8 20.3 22.8 20.2725 22.8 20.2725V8.11749Z" fill="#D9D9D9"/>
</svg>
