<svg width="33" height="33" viewBox="0 0 33 33" fill="none" xmlns="http://www.w3.org/2000/svg">
<g id="24 / basic / globe">
<path id="icon" fill-rule="evenodd" clip-rule="evenodd" d="M16.1035 1.83325C24.2036 1.83325 30.7701 8.39974 30.7701 16.4999C30.7701 24.6001 24.2036 31.1666 16.1035 31.1666C8.00329 31.1666 1.4368 24.6001 1.4368 16.4999C1.4368 8.39974 8.00329 1.83325 16.1035 1.83325ZM4.191 15.0431C4.57972 15.5406 5.66055 16.1772 7.31447 16.6966C7.9657 16.9011 8.67893 17.0809 9.4442 17.2335C9.43928 16.9904 9.4368 16.7458 9.4368 16.4999C9.4368 12.0631 10.2442 8.05632 11.6429 5.35633C7.65562 6.95381 4.72517 10.6292 4.191 15.0431ZM9.60898 19.981C7.46791 19.6089 5.63205 19.0456 4.24075 18.321C4.88796 22.5722 7.76582 26.0902 11.6429 27.6435C10.6217 25.6722 9.91568 23.0043 9.60898 19.981ZM12.342 20.3364C13.5381 20.4441 14.798 20.4999 16.1035 20.4999C17.3879 20.4999 18.6534 20.4271 19.8705 20.2921C19.2691 25.0889 17.6061 28.4999 16.1035 28.4999C14.6054 28.4999 12.9481 25.1098 12.342 20.3364ZM20.0852 17.5726C18.8191 17.7366 17.4742 17.8333 16.1035 17.8333C14.7112 17.8333 13.3747 17.7643 12.1239 17.6335C12.1104 17.2607 12.1035 16.8825 12.1035 16.4999C12.1035 9.81191 14.2283 4.49992 16.1035 4.49992C17.9787 4.49992 20.1035 9.81191 20.1035 16.4999C20.1035 16.8617 20.0972 17.2195 20.0852 17.5726ZM22.6091 19.8691C22.3086 22.9385 21.5978 25.6479 20.5641 27.6435C24.5095 26.0628 27.4203 22.4474 27.9984 18.0952C26.5848 18.8304 24.7231 19.4452 22.6091 19.8691ZM28.0081 14.9801C27.3807 15.6844 25.4017 16.5209 22.7651 17.1054C22.7684 16.9045 22.7701 16.7027 22.7701 16.4999C22.7701 12.0631 21.9627 8.05632 20.5641 5.35633C24.5323 6.9462 27.4538 10.5943 28.0081 14.9801Z" fill="#DADADA"/>
</g>
</svg>
